<svg width="60" height="60" viewBox="0 0 60 60" fill="none" xmlns="http://www.w3.org/2000/svg">
<path fill-rule="evenodd" clip-rule="evenodd" d="M52.5 7.5H7.5V45H52.5V7.5ZM30 36.25C34.1421 36.25 37.5 33.4518 37.5 30C37.5 26.5482 34.1421 23.75 30 23.75C25.8579 23.75 22.5 26.5482 22.5 30C22.5 33.4518 25.8579 36.25 30 36.25Z" fill="#007BFF" fill-opacity="0.2"/>
<path fill-rule="evenodd" clip-rule="evenodd" d="M13.1125 35.7458L16.6125 41.7833C16.8458 42.1625 17.2833 42.3083 17.6916 42.1625L22.0375 40.4125C22.9416 41.1125 23.9041 41.6958 24.9833 42.1333L25.625 46.7708C25.7125 47.1792 26.0625 47.5 26.5 47.5H33.5C33.9375 47.5 34.2875 47.1792 34.375 46.7417L35.0166 42.1042C36.0666 41.6667 37.0583 41.0833 37.9625 40.3833L42.3083 42.1333C42.7166 42.2792 43.1541 42.1333 43.3875 41.7542L46.8875 35.7167C47.1208 35.3375 47.0041 34.8708 46.6833 34.5792L42.9791 31.6917C43.0667 31.1375 43.0958 30.5542 43.0958 30C43.0958 29.4167 43.0375 28.8625 42.9791 28.2792L46.6833 25.3917C47.0041 25.1292 47.1208 24.6333 46.8875 24.2542L43.3875 18.2167C43.1541 17.8375 42.7166 17.6917 42.3083 17.8375L37.9625 19.5875C37.0583 18.8875 36.0958 18.3042 35.0166 17.8667L34.375 13.2292C34.2875 12.8208 33.9375 12.5 33.5 12.5H26.5C26.0625 12.5 25.7125 12.8208 25.625 13.2583L24.9833 17.8958C23.9333 18.3333 22.9125 18.8875 22.0375 19.5875L17.6916 17.8375C17.2833 17.6917 16.8458 17.8375 16.6125 18.2167L13.1125 24.2542C12.8791 24.6333 12.9958 25.1 13.3166 25.3917L17.0208 28.2792C16.9333 28.8625 16.875 29.4167 16.875 30C16.875 30.5833 16.9333 31.1375 16.9916 31.7208L13.2875 34.6083C12.9666 34.9 12.8791 35.3667 13.1125 35.7458ZM29.9999 25.0125C32.7416 25.0125 34.9874 27.2583 34.9874 30C34.9874 32.7417 32.7416 34.9875 29.9999 34.9875C27.2583 34.9875 25.0124 32.7417 25.0124 30C25.0124 27.2583 27.2583 25.0125 29.9999 25.0125ZM50.4167 3.75H9.58333C6.34583 3.75 3.75 6.375 3.75 9.58333V50.4167C3.75 53.625 6.34583 56.25 9.58333 56.25H50.4167C53.6542 56.25 56.25 53.625 56.25 50.4167V9.58333C56.25 6.375 53.6542 3.75 50.4167 3.75ZM50.4166 50.4167H9.58324V9.58334H50.4166V50.4167Z" fill="#007BFF"/>
</svg>
