<svg width="30" height="30" viewBox="0 0 30 30" fill="none" xmlns="http://www.w3.org/2000/svg">
<path d="M24.375 3.75H5.625V22.5H11.4775L11.25 22.7275L15.2275 26.705L19.205 22.7275L18.9775 22.5H24.375V3.75Z" fill="#FD7E14" fill-opacity="0.2"/>
<path fill-rule="evenodd" clip-rule="evenodd" d="M23.75 2.5H6.25C4.875 2.5 3.75 3.625 3.75 5V22.5C3.75 23.875 4.875 25 6.25 25H11.25L15 28.75L18.75 25H23.75C25.125 25 26.25 23.875 26.25 22.5V5C26.25 3.625 25.125 2.5 23.75 2.5ZM23.75 22.5H17.7125L15 25.2125L12.2875 22.5H6.25V5H23.75V22.5ZM15 21.25L17.35 16.1L22.5 13.75L17.35 11.4L15 6.25L12.65 11.4L7.5 13.75L12.65 16.1L15 21.25Z" fill="#FD7E14"/>
</svg>
