<svg width="30" height="30" viewBox="0 0 30 30" fill="none" xmlns="http://www.w3.org/2000/svg">
<rect x="5.625" y="5.625" width="18.75" height="15" fill="#FE6746" fill-opacity="0.2"/>
<path fill-rule="evenodd" clip-rule="evenodd" d="M23.75 3.75C25.125 3.75 26.25 4.875 26.25 6.25V23.75C26.25 25.125 25.125 26.25 23.75 26.25H6.25C4.875 26.25 3.75 25.125 3.75 23.75V6.25C3.75 4.875 4.875 3.75 6.25 3.75H23.75ZM23.75 23.75V6.25H6.25V23.75H23.75ZM9.375 22.5C8.33947 22.5 7.5 21.6605 7.5 20.625C7.5 19.5895 8.33947 18.75 9.375 18.75C10.4105 18.75 11.25 19.5895 11.25 20.625C11.25 21.6605 10.4105 22.5 9.375 22.5ZM9.375 11.25C8.33947 11.25 7.5 10.4105 7.5 9.375C7.5 8.33947 8.33947 7.5 9.375 7.5C10.4105 7.5 11.25 8.33947 11.25 9.375C11.25 10.4105 10.4105 11.25 9.375 11.25ZM15 16.875C13.9645 16.875 13.125 16.0355 13.125 15C13.125 13.9645 13.9645 13.125 15 13.125C16.0355 13.125 16.875 13.9645 16.875 15C16.875 16.0355 16.0355 16.875 15 16.875ZM20.625 22.5C19.5895 22.5 18.75 21.6605 18.75 20.625C18.75 19.5895 19.5895 18.75 20.625 18.75C21.6605 18.75 22.5 19.5895 22.5 20.625C22.5 21.6605 21.6605 22.5 20.625 22.5ZM20.625 11.25C19.5895 11.25 18.75 10.4105 18.75 9.375C18.75 8.33947 19.5895 7.5 20.625 7.5C21.6605 7.5 22.5 8.33947 22.5 9.375C22.5 10.4105 21.6605 11.25 20.625 11.25Z" fill="#FE6746"/>
</svg>
