<svg width="30" height="30" viewBox="0 0 30 30" fill="none" xmlns="http://www.w3.org/2000/svg">
<path d="M5.625 5.625H24.375V11.25H5.625V5.625Z" fill="#5867DD" fill-opacity="0.2"/>
<path d="M5.625 18.75H24.375V24.375H5.625V18.75Z" fill="#5867DD" fill-opacity="0.2"/>
<path fill-rule="evenodd" clip-rule="evenodd" d="M6.81818 5.625C6.25335 5.625 5.79545 6.04473 5.79545 6.5625V10.3125C5.79545 10.8303 6.25335 11.25 6.81818 11.25H23.1818C23.7467 11.25 24.2045 10.8303 24.2045 10.3125V6.5625C24.2045 6.04473 23.7467 5.625 23.1818 5.625H6.81818ZM3.75 6.5625C3.75 5.0092 5.12367 3.75 6.81818 3.75H23.1818C24.8763 3.75 26.25 5.0092 26.25 6.5625V10.3125C26.25 11.8658 24.8763 13.125 23.1818 13.125H6.81818C5.12367 13.125 3.75 11.8658 3.75 10.3125V6.5625Z" fill="#5867DD"/>
<path fill-rule="evenodd" clip-rule="evenodd" d="M6.81818 18.75C6.25335 18.75 5.79545 19.1697 5.79545 19.6875V23.4375C5.79545 23.9553 6.25335 24.375 6.81818 24.375H23.1818C23.7467 24.375 24.2045 23.9553 24.2045 23.4375V19.6875C24.2045 19.1697 23.7467 18.75 23.1818 18.75H6.81818ZM3.75 19.6875C3.75 18.1342 5.12367 16.875 6.81818 16.875H23.1818C24.8763 16.875 26.25 18.1342 26.25 19.6875V23.4375C26.25 24.9908 24.8763 26.25 23.1818 26.25H6.81818C5.12367 26.25 3.75 24.9908 3.75 23.4375V19.6875Z" fill="#5867DD"/>
</svg>
